<?xml version="1.0" encoding="utf-8"?>
<!-- Generator: Adobe Illustrator 28.0.0, SVG Export Plug-In . SVG Version: 6.00 Build 0)  -->
<svg version="1.1" id="_x32_" xmlns="http://www.w3.org/2000/svg" xmlns:xlink="http://www.w3.org/1999/xlink" x="0px" y="0px"
	 viewBox="0 0 800 800" style="enable-background:new 0 0 800 800;" xml:space="preserve">
<style type="text/css">
	.st0{fill:#FFFFFF;}
</style>
<g>
	<path class="st0" d="M381.3,479.7c-20.7-20.8-46.9-36.1-76.2-43.7c-2.5,16.9-17.2,29.8-34.5,29.8c-0.9,0-1.8,0-2.6-0.1
		c-9.3-0.7-17.7-5-23.8-12c-5-5.8-7.9-13-8.4-20.5c-78.7,13.2-138.7,81.5-138.7,164c0,91.9,74.5,166.3,166.3,166.3
		c34,0,65.6-10.3,92-27.8c-19.5-32.4-30.8-70.3-30.8-110.7C324.7,569,346.2,518,381.3,479.7z M190.4,686.3c-2.9,2.7-6.5,4-10.1,4
		c-4.1,0-8.1-1.6-11-4.9c-22.4-24.4-34.7-56.1-34.7-89.1c0-17.6,3.4-34.7,10.2-50.9c3.2-7.6,12-11.2,19.6-8s11.2,11.9,8,19.6
		c-5.2,12.5-7.9,25.7-7.9,39.3c0,25.5,9.5,50,26.8,68.9C196.9,671.3,196.5,680.7,190.4,686.3z M184.9,527.3c-8.3,0-15-6.7-15-14.9
		c0-8.3,6.7-14.9,15-14.9c8.3,0,14.9,6.7,14.9,14.9C199.9,520.6,193.2,527.3,184.9,527.3z M308.1,483.2
		c-4.7,10.9-20.9,21.5-40.1,21.5c-19.2,0-35.4-10.6-40.1-21.5c-1.1-2.5,0-5.4,2.6-6.6c2.5-1.1,5.3,0.1,6.6,2.6
		c2.2,4.2,14.3,12.2,31,12.2c16.7,0,28.4-6.3,31-12.2c1.1-2.5,4.1-3.7,6.6-2.6C308.1,477.7,309.3,480.6,308.1,483.2z"/>
	<path class="st0" d="M85.3,28c243.6-86.2,272.3,48.9,320.1,108c3.6,4.4,2.6,9.1-1.9,7.7c-63.2-19.8-157-44.8-202.2-68.1
		c-3.8,47.8,231.8,80.2,195.4,99.4C234.6,233.9,115.7,219.7,85.3,28z"/>
	<path class="st0" d="M463.8,104.6c-1-2.9-2.1-5.8-3.4-8.8c-1-2.1-2.4-3.9-4.1-5.2c-4.3-8.1-8.8-16.2-13.4-24.5
		c-4-7.2-13.1-9.8-20.4-5.8c-7.2,4-9.8,13.1-5.7,20.3c6.6,11.8,12.9,23.5,19,34.9c8.1,29.9-17.6,58.8-61.8,104.7
		c-49.5,51.4-111.2,115.5-118.2,209.4c-0.6,8.2,5.6,15.4,13.8,16c0.4,0,0.8,0,1.1,0c7.8,0,14.3-6,14.9-13.8
		c6.2-83.2,61.3-140.5,109.9-190.9c25.8-26.8,50.8-52.8,63.4-79.8c56.7,117.2,81.5,213,73.9,285.6c-0.9,8.2,5.1,15.6,13.3,16.4
		c0.5,0.1,1,0.1,1.6,0.1c7.6,0,14.1-5.7,14.8-13.4C571.7,362.8,538.4,246.8,463.8,104.6z"/>
	<path class="st0" d="M581.9,455c-3.1,16.3-17.3,28.2-34.2,28.2c-1.2,0-2.5,0-3.7-0.2c-16.7-1.8-29.4-15.1-31-31.2
		c-84,12.9-148.3,85.4-148.3,173c0,96.7,78.4,175.1,175.1,175.1c96.7,0,175-78.4,175-175.1C714.7,542.8,658.2,473.9,581.9,455z
		 M461.7,718.3c-2.9,2.6-6.5,3.9-10.1,3.9c-4,0-8.1-1.6-11-4.9c-23.4-25.5-36.3-58.7-36.3-93.2c0-18.5,3.6-36.4,10.7-53.3
		c3.2-7.6,12-11.2,19.6-8s11.2,12,8,19.6c-5.5,13.2-8.4,27.2-8.4,41.7c0,27.1,10.1,53,28.5,73C468.2,703.2,467.8,712.7,461.7,718.3z
		 M456.5,550.7c-8.3,0-14.9-6.7-14.9-14.9c0-8.3,6.7-15,14.9-15c8.3,0,15,6.7,15,15C471.5,544,464.8,550.7,456.5,550.7z
		 M586.4,504.9c-5,11.4-16.2,23.4-42,23.4c-22.9,0-37-12-42-23.4c-1.1-2.5,0.1-5.5,2.6-6.6c2.5-1.1,5.5,0.1,6.6,2.6
		c2.8,6.3,15.2,13,32.8,13c17.7,0,30.1-6.7,32.9-13c1.1-2.5,4-3.7,6.6-2.6C586.3,499.5,587.5,502.4,586.4,504.9z"/>
</g>
</svg>
